<svg fill="none" height="71" viewBox="0 0 285 71" width="285" xmlns="http://www.w3.org/2000/svg" xmlns:xlink="http://www.w3.org/1999/xlink"><clipPath id="a"><path d="m0 0h285v71h-285z"/></clipPath><mask id="b" height="73" maskUnits="userSpaceOnUse" width="286" x="0" y="-1"><path d="m240.089 71h1.484v-6.847h.025l2.469 6.847h1.284l2.469-6.847h.025v6.847h1.484v-8.8722h-2.17l-2.394 6.9462h-.025l-2.456-6.9462h-2.195zm-8.216-7.5305h2.817v7.5305h1.559v-7.5305h2.83v-1.3416h-7.206zm-18.116 7.5305 71.25-70.99999938h-42.883l-71.247 70.99999938h42.883zm-10.215-40.0795h-86.253c-26.2863 0-30.8867 1.3889-42.1465 12.6084-10.5303 10.4933-27.6356 27.4723-27.6356 27.4723h37.3636l8.9136-8.8824c5.8603-5.8397 8.8829-6.4446 21.1879-6.4446h63.731l24.837-24.753zm-129.549 7.5452c-7.7768 7.3115-24.6977 23.6903-33.8177 32.5345h-40.16835725s32.18595725-31.9807 50.07685725-49.5296c18.4315-17.48371 27.6189-21.47154605 61.4272-21.47154605h123.063l-26.645 26.55164605h-93.917c-23.755 0-29.0917 1.6404-40.0167 11.9147z" fill="#fff"/></mask><g clip-path="url(#a)"><g mask="url(#b)"><path d="m213.757 71 71.25-70.99999938h-42.883l-71.247 70.99999938h42.883zm-10.215-40.0795h-86.253c-26.2863 0-30.8867 1.389-42.1465 12.6084-10.5303 10.4933-27.6356 27.4723-27.6356 27.4723h37.3636l8.9136-8.8824c5.8603-5.8397 8.8829-6.4446 21.1879-6.4446h63.731l24.837-24.753zm-129.549 7.5452c-7.7768 7.3116-24.6977 23.6903-33.8177 32.5345h-40.16835725s32.18595725-31.9807 50.07685725-49.5296c18.4315-17.48371 27.6189-21.47154605 61.4272-21.47154605h123.063l-26.645 26.55164605h-93.917c-23.755 0-29.0917 1.6404-40.0167 11.9147z" fill="#fff"/></g></g></svg>